<?xml version="1.0" encoding="utf-8"?>
<!-- Generator: Adobe Illustrator 24.3.0, SVG Export Plug-In . SVG Version: 6.00 Build 0)  -->
<svg version="1.1" id="Layer_1" xmlns="http://www.w3.org/2000/svg" xmlns:xlink="http://www.w3.org/1999/xlink" x="0px" y="0px"
	 viewBox="0 0 1440 14669" style="enable-background:new 0 0 1440 14669;" xml:space="preserve">
<style type="text/css">
	.st0{fill:#9DC0E1;}
	.st1{fill:#C4D9ED;}
	.st2{fill:#164374;}
	.st3{fill:#EBF2F9;}
	.st4{fill:none;stroke:#FFFFFF;}
	.st5{fill:none;stroke:#C4D9ED;stroke-width:3;}
	.st6{fill:#F5FAFF;}
	.st7{fill:#CECED0;}
	.st8{fill:none;}
	.st9{fill:#F5F7FA;}
	.st10{fill-rule:evenodd;clip-rule:evenodd;fill:#4896E8;}
</style>
<rect y="13790" class="st0" width="1440" height="832"/>
<rect y="14611" class="st1" width="1440" height="58"/>
<path class="st2" d="M720,13112v1204L0,14007.8V13112H720z"/>
<path class="st2" d="M720,13112v1204l720-308.2V13112H720z"/>
<path class="st2" d="M720,11552v2304L0,13266.2V11552H720z"/>
<path class="st2" d="M720,11552v2304l720-589.8V11552H720z"/>
<path class="st0" d="M720,10752v1204L0,11647.8V10752H720z"/>
<path class="st0" d="M720,10752v1204l720-308.2V10752H720z"/>
<path class="st0" d="M720,9192v2304L0,10906.2V9192H720z"/>
<path class="st0" d="M720,9192v2304l720-589.8V9192H720z"/>
<path class="st1" d="M720,8392v1204L0,9287.8V8392H720z"/>
<path class="st1" d="M720,8392v1204l720-308.2V8392H720z"/>
<path class="st1" d="M720,6832v2304L0,8546.2V6832H720z"/>
<path class="st1" d="M720,6832v2304l720-589.8V6832H720z"/>
<path class="st0" d="M720,5891v1351L0,6896.1V5891H720z"/>
<path class="st0" d="M720,5762v1351L0,6767.1V5762H720z"/>
<path class="st2" d="M720,5891v1351l720-345.9V5891H720z"/>
<path class="st2" d="M720,5762v1351l720-345.9V5762H720z"/>
<path class="st3" d="M720,4672v1469L0,5764.9V4672H720z"/>
<path class="st3" d="M720,4672v1469l720-376.1V4672H720z"/>
<path class="st1" d="M720,3765v1227L0,4677.9V3765H720z"/>
<path class="st1" d="M720,3765v1227l720-314.1V3765H720z"/>
<rect y="3496" class="st3" width="1440" height="281"/>
<path class="st1" d="M720,2681v1096L0,3496.4V2681H720z"/>
<path class="st1" d="M720,2681v1096l720-280.6V2681H720z"/>
<path class="st4" d="M361,3352l720,280"/>
<path class="st5" d="M638,3460l163.1,63.4"/>
<path class="st4" d="M1081,3352l-720,280"/>
<path class="st5" d="M804,3460l-163.1,63.4"/>
<path class="st6" d="M734.1,3563.5c-1.1-0.3-2-0.6-3.1-0.9c0.8-3,1.2-6.1,2.3-8.9c2-5.4,6.3-7.7,12-6.8c3.6,0.6,7.3,1,10.9,1.7
	c8.9,1.7,13.5-5.4,12-13.2c-0.2-0.8-0.4-1.6-0.6-2.4c4.4-2.9,4.6-3.9,1.6-8.1c0.5-0.3,0.9-0.7,1.4-1c1.7-1,2.3-2.2,1.4-4.2
	c-1.6-3.6-0.6-5.9,3-7.6c5.7-2.7,5.7-2.7,1.9-7.8c-2.5-3.5-5.1-6.9-7.5-10.4c-2.1-3.1-2.8-6.5-2.5-10.3c0.8-8.9,0.2-17.8-2.7-26.3
	c-7.3-21.2-29.5-35.5-51.9-33.7c-8.7,0.7-17.3,2.1-25,6.4c-18.7,10.5-27.3,26.8-26.8,48c0.2,9.9,3.7,18.9,8.9,27.3
	c3.5,5.7,6.6,11.6,9.4,17.6c6.2,13.4,4.7,26.8-0.5,40.5c-1-0.3-1.9-0.6-2.9-0.9c1-3.4,2.1-6.7,2.8-10c2.6-11,1.4-21.6-4-31.7
	c-3.2-6-6.6-11.9-9.9-17.9c-12.2-22.3-8.8-49.6,9.2-67.1c10.7-10.4,23.8-14.7,38.4-15.4c21.4-1,38.2,7.4,50,25.2
	c6.6,9.9,8.7,21.1,8.3,32.9c0,0.5,0,0.9-0.1,1.4c-1.1,6.3,0.5,11.7,4.8,16.5c2.3,2.6,4.2,5.6,6.2,8.5c2.4,3.3,1.7,6.6-1.9,8.7
	c-0.5,0.3-1,0.5-1.4,0.7c-3.9,1.6-3.8,1.5-2.7,5.3c0.3,1.1,0.6,2.6,0,3.3c-1.4,2-1.3,4-1.2,6.2c0,1.2-0.6,2.8-1.4,3.7
	c-1.2,1.3-1.3,2.5-1.2,4.1c0.5,7.1-3,12.8-8.9,14.4c-1.8,0.5-3.8,0.6-5.7,0.4c-4-0.4-7.9-1.1-11.8-1.7c-5-0.8-8.2,1.3-9.5,6.3
	C735.1,3558.7,734.6,3561,734.1,3563.5z"/>
<path class="st7" d="M1440,2396v1096l-720-280.6V2396H1440z"/>
<path class="st8" d="M1440,2396v1096l-720-280.6V2396H1440z"/>
<path class="st9" d="M0,2396v1096l720-280.6V2396H0z"/>
<rect y="2266" class="st3" width="1440" height="281"/>
<path class="st1" d="M720,1451v1096L0,2266.4V1451H720z"/>
<path class="st1" d="M720,1451v1096l720-280.6V1451H720z"/>
<path class="st4" d="M361,2122l720,280"/>
<path class="st5" d="M638,2230l163.1,63.4"/>
<path class="st4" d="M1081,2122l-720,280"/>
<path class="st5" d="M804,2230l-163.1,63.4"/>
<path class="st6" d="M734.1,2333.5c-1.1-0.3-2-0.6-3.1-0.9c0.8-3,1.2-6.1,2.3-8.9c2-5.4,6.3-7.7,12-6.8c3.6,0.6,7.3,1,10.9,1.7
	c8.9,1.7,13.5-5.4,12-13.2c-0.2-0.8-0.4-1.6-0.6-2.4c4.4-2.9,4.6-3.9,1.6-8.1c0.5-0.3,0.9-0.7,1.4-1c1.7-1,2.3-2.2,1.4-4.2
	c-1.6-3.6-0.6-5.9,3-7.6c5.7-2.7,5.7-2.7,1.9-7.8c-2.5-3.5-5.1-6.9-7.5-10.4c-2.1-3.1-2.8-6.5-2.5-10.3c0.8-8.9,0.2-17.8-2.7-26.3
	c-7.3-21.2-29.5-35.5-51.9-33.7c-8.7,0.7-17.3,2.1-25,6.4c-18.7,10.5-27.3,26.8-26.8,48c0.2,9.9,3.7,18.9,8.9,27.3
	c3.5,5.7,6.6,11.6,9.4,17.6c6.2,13.4,4.7,26.8-0.5,40.5c-1-0.3-1.9-0.6-2.9-0.9c1-3.4,2.1-6.7,2.8-10c2.6-11,1.4-21.6-4-31.7
	c-3.2-6-6.6-11.9-9.9-17.9c-12.2-22.3-8.8-49.6,9.2-67.1c10.7-10.4,23.8-14.7,38.4-15.4c21.4-1,38.2,7.4,50,25.2
	c6.6,9.9,8.7,21.1,8.3,32.9c0,0.5,0,0.9-0.1,1.4c-1.1,6.3,0.5,11.7,4.8,16.5c2.3,2.6,4.2,5.6,6.2,8.5c2.4,3.3,1.7,6.6-1.9,8.7
	c-0.5,0.3-1,0.5-1.4,0.7c-3.9,1.6-3.8,1.5-2.7,5.3c0.3,1.1,0.6,2.6,0,3.3c-1.4,2-1.3,4-1.2,6.2c0,1.2-0.6,2.8-1.4,3.7
	c-1.2,1.3-1.3,2.5-1.2,4.1c0.5,7.1-3,12.8-8.9,14.4c-1.8,0.5-3.8,0.6-5.7,0.4c-4-0.4-7.9-1.1-11.8-1.7c-5-0.8-8.2,1.3-9.5,6.3
	C735.1,2328.7,734.6,2331,734.1,2333.5z"/>
<path class="st7" d="M1440,1166v1096l-720-280.6V1166H1440z"/>
<path class="st8" d="M1440,1166v1096l-720-280.6V1166H1440z"/>
<path class="st9" d="M0,1166v1096l720-280.6V1166H0z"/>
<rect y="446" class="st3" width="1440" height="720"/>
<path class="st3" d="M720,1414l722.3-248.2H-2.3L720,1414z"/>
<path class="st10" d="M1440-1H0v486.8h-2.3L720,734l722.3-248.2h-2.3V-1z"/>
</svg>
